<svg xmlns="http://www.w3.org/2000/svg" aria-hidden="true" style="position:absolute;width:0;height:0;overflow:hidden">
    <defs>
        <!-- Logo icons -->
        <symbol id="icon-w" viewBox="0 0 32 32">
            <path
                d="m7.484 26.604 5.107-23.556h3.046l1.655 2.01-5.441 23.894H8.488l-1.004-2.349zM6.128 3.048l4.314 23.734-1.109 2.171H5.441L0 3.048h6.128zm13.965 23.609 4.279-23.61h6.11l-5.441 25.905h-3.874l-1.074-2.295zM17.839 3.048l5.23 23.699-1.057 2.206h-3.363l-5.565-23.93 1.726-1.975h3.029z" />
        </symbol>
        <symbol id="icon-i" viewBox="0 0 32 32">
            <path d="M19.81 3.048v25.905h-6.095V3.048h6.095z" />
        </symbol>
        <symbol id="icon-z" viewBox="0 0 32 32">
            <path
                d="M25.905 24.149v4.804H7.574v-4.804h18.331zM25.783 6.25 10.6 28.952H6.182v-3.291L21.539 3.048h4.244v3.203zm-1.965-3.202V7.87H6.095V3.048h17.723z" />
        </symbol>
        <symbol id="icon-a" viewBox="0 0 32 32">
            <path
                d="m16.553 8.492-6.55 20.46H3.047l9.871-25.905h4.41l-.775 5.444zm5.425 20.46-6.569-20.46-.849-5.444h4.465l9.926 25.905h-6.974zm-.258-9.661v4.822H7.937v-4.822H21.72z" />
        </symbol>
        <symbol id="icon-r" viewBox="0 0 32 32">
            <path
                d="M6.095 3.048h10.421c2.037 0 3.807.297 5.311.89s2.661 1.471 3.474 2.633c.824 1.162 1.237 2.598 1.237 4.306 0 1.483-.236 2.722-.709 3.718s-1.134 1.821-1.982 2.473c-.837.641-1.813 1.168-2.928 1.584l-2.092 1.156h-8.748l-.036-4.822h6.475c.812 0 1.485-.142 2.019-.427s.934-.688 1.2-1.21c.279-.534.418-1.168.418-1.904 0-.747-.139-1.388-.418-1.921s-.691-.943-1.237-1.228c-.534-.285-1.194-.427-1.982-.427H12.48v21.083H6.096V3.047zM20.59 28.952l-5.856-11.458 6.766-.036 5.929 11.227v.267h-6.838z" />
        </symbol>
        <symbol id="icon-d" viewBox="0 0 32 32">
            <path
                d="M14.293 28.952H8.695l.035-4.804h5.563c1.155 0 2.132-.285 2.929-.854.809-.569 1.421-1.417 1.837-2.544.428-1.139.641-2.538.641-4.199V15.43c0-1.245-.121-2.337-.364-3.274-.231-.949-.578-1.738-1.04-2.366a4.374 4.374 0 0 0-1.733-1.441c-.682-.32-1.467-.48-2.357-.48H8.591V3.047h5.615c1.71 0 3.276.302 4.697.907a10.497 10.497 0 0 1 3.709 2.562c1.051 1.103 1.86 2.414 2.426 3.932.578 1.506.867 3.179.867 5.017v1.085c0 1.827-.289 3.499-.867 5.017-.566 1.518-1.369 2.829-2.409 3.932s-2.27 1.957-3.692 2.562c-1.41.593-2.958.89-4.645.89zM12.178 3.048v25.905H6.095V3.048h6.083z" />
        </symbol>
        <symbol id="icon-rectangle" viewBox="0 0 32 32">
            <path d="M1.421 1.564h29.158v29.158H1.421V1.564z" />
        </symbol>
        <!-- Socials icons -->
        <symbol id="icon-glass-thin" viewBox="0 0 32 32">
            <path stroke-width=".667"
                d="M27.68 28.767a.817.817 0 0 0 .906-.181.821.821 0 0 0 .181-.906.813.813 0 0 0-.182-.267l-5.502-5.514a11.334 11.334 0 1 0-1.183 1.183l5.514 5.502c.076.078.167.14.267.182zM4.833 14.5a9.664 9.664 0 0 1 16.501-6.834 9.671 9.671 0 0 1-1.464 14.872 9.664 9.664 0 0 1-5.37 1.629A9.678 9.678 0 0 1 4.833 14.5z" />
        </symbol>
        <symbol id="icon-instagram" viewBox="0 0 32 32">
            <path
                d="M15.518 10.546a5.525 5.525 0 0 0-5.1 3.407 5.518 5.518 0 0 0 4.023 7.526 5.517 5.517 0 0 0 4.977-9.315 5.528 5.528 0 0 0-3.901-1.619zm0 9.6a4.076 4.076 0 0 1-3.77-2.519 4.073 4.073 0 0 1 .885-4.446 4.085 4.085 0 0 1 4.446-.885 4.077 4.077 0 0 1 2.519 3.77 4.08 4.08 0 0 1-4.08 4.08zm5.76-16.32H9.758a6.487 6.487 0 0 0-6.48 6.48v11.52a6.487 6.487 0 0 0 6.48 6.48h11.52a6.487 6.487 0 0 0 6.48-6.48v-11.52a6.487 6.487 0 0 0-6.48-6.48zm5.04 18a5.04 5.04 0 0 1-5.04 5.04H9.758a5.04 5.04 0 0 1-5.04-5.04v-11.52a5.04 5.04 0 0 1 5.04-5.04h11.52a5.04 5.04 0 0 1 5.04 5.04v11.52zm-3.36-12a1.202 1.202 0 0 1-.74 1.109 1.198 1.198 0 0 1-1.125-2.106 1.203 1.203 0 0 1 1.868.998z" />
        </symbol>
        <symbol id="icon-facebook" viewBox="0 0 32 32">
            <path
                d="M15.518 3.826a12.24 12.24 0 1 0 12.24 12.241 12.253 12.253 0 0 0-12.24-12.24zm.72 23.016v-8.136h3.12a.72.72 0 0 0 0-1.44h-3.12v-3.12a2.16 2.16 0 0 1 2.16-2.16h1.92a.72.72 0 0 0 0-1.44h-1.92a3.602 3.602 0 0 0-3.6 3.6v3.12h-3.12a.72.72 0 0 0 0 1.44h3.12v8.136a10.8 10.8 0 1 1 1.44 0z" />
        </symbol>
        <symbol id="icon-behance" viewBox="0 0 32 32">
            <path
                d="M13.616 15.389a4.321 4.321 0 0 0-2.658-7.723h-6.96a.72.72 0 0 0-.72.72v15.36a.72.72 0 0 0 .72.72h7.44a4.8 4.8 0 0 0 2.177-9.077zM4.718 9.106h6.24a2.883 2.883 0 0 1 2.036 4.917c-.54.54-1.273.844-2.036.844h-6.24v-5.76zm6.72 13.92h-6.72v-6.72h6.72a3.36 3.36 0 0 1 0 6.72zm8.16-12.72a.72.72 0 0 1 .72-.72h7.68a.72.72 0 0 1 0 1.44h-7.68a.72.72 0 0 1-.72-.72zm4.56 3.12a5.523 5.523 0 0 0-5.514 5.272 5.512 5.512 0 0 0 2.404 4.809 5.519 5.519 0 0 0 7.526-1.247.719.719 0 0 0-.678-1.146.722.722 0 0 0-.475.281 4.079 4.079 0 0 1-6.229.356 4.08 4.08 0 0 1-1.052-2.084h8.816a.72.72 0 0 0 .72-.72 5.528 5.528 0 0 0-5.52-5.52zm-4.016 4.8a4.08 4.08 0 0 1 8.032 0h-8.033z" />
        </symbol>
        <!-- Nav icons -->
        <symbol id="icon-glass-plus" viewBox="0 0 32 32">
            <path
                d="M18.75 14a.753.753 0 0 1-.75.75h-3.25V18a.753.753 0 0 1-.75.75.753.753 0 0 1-.75-.75v-3.25H10a.753.753 0 0 1-.75-.75.753.753 0 0 1 .75-.75h3.25V10a.753.753 0 0 1 .75-.75.753.753 0 0 1 .75.75v3.25H18a.753.753 0 0 1 .75.75zm9.78 14.53a.752.752 0 0 1-1.06 0l-6.422-6.422a10.769 10.769 0 1 1 1.059-1.058l6.422 6.422a.752.752 0 0 1 0 1.06zM14 23.25a9.244 9.244 0 0 0 8.546-5.71 9.249 9.249 0 0 0-6.742-12.612A9.249 9.249 0 0 0 4.75 14 9.263 9.263 0 0 0 14 23.25z" />
        </symbol>
        <symbol id="icon-arrow-short-right" viewBox="0 0 32 32">
            <path
                d="M4.25 16a.753.753 0 0 0 .75.75h20.189l-7.719 7.72a.748.748 0 1 0 1.058 1.058l9-9a.752.752 0 0 0 0-1.06l-9-9a.75.75 0 0 0-1.262.536.757.757 0 0 0 .201.525l7.719 7.72H4.997a.753.753 0 0 0-.75.75z" />
        </symbol>
        <symbol id="icon-arrow-big-right" viewBox="0 0 32 32">
            <path
                d="M0 15.807a.534.534 0 0 1 .537-.537l23.747.142-5.525-5.526a.523.523 0 0 1-.17-.383.537.537 0 0 1 .929-.376l6.442 6.442a.535.535 0 0 1 0 .758l-6.442 6.442a.538.538 0 0 1-.758-.758l5.525-5.526-23.747-.142a.534.534 0 0 1-.537-.537z" />
        </symbol>

        <symbol id="icon-arrow-short-left" viewBox="0 0 32 32">
            <path
                d="M27.75 16c0 0.199-0.079 0.39-0.22 0.53s-0.331 0.22-0.53 0.22h-20.189l7.719 7.72c0.074 0.069 0.133 0.151 0.174 0.243s0.063 0.191 0.065 0.292c0.002 0.101-0.017 0.201-0.054 0.294s-0.094 0.178-0.165 0.249c-0.071 0.071-0.156 0.127-0.249 0.165s-0.193 0.056-0.294 0.054c-0.101-0.002-0.2-0.024-0.292-0.065s-0.175-0.1-0.243-0.174l-9-9c-0.14-0.141-0.219-0.331-0.219-0.53s0.079-0.389 0.219-0.53l9-9c0.142-0.132 0.33-0.205 0.525-0.201s0.38 0.082 0.517 0.22 0.216 0.323 0.22 0.517c0.003 0.194-0.069 0.382-0.201 0.525l-7.719 7.72h20.189c0.199 0 0.39 0.079 0.53 0.22s0.22 0.331 0.22 0.53z">
            </path>
        </symbol>

        <symbol id="icon-arrow-short-left" viewBox="0 0 32 32">
            <path
                d="M27.75 16c0 0.199-0.079 0.39-0.22 0.53s-0.331 0.22-0.53 0.22h-20.189l7.719 7.72c0.074 0.069 0.133 0.151 0.174 0.243s0.063 0.191 0.065 0.292c0.002 0.101-0.017 0.201-0.054 0.294s-0.094 0.178-0.165 0.249c-0.071 0.071-0.156 0.127-0.249 0.165s-0.193 0.056-0.294 0.054c-0.101-0.002-0.2-0.024-0.292-0.065s-0.175-0.1-0.243-0.174l-9-9c-0.14-0.141-0.219-0.331-0.219-0.53s0.079-0.389 0.219-0.53l9-9c0.142-0.132 0.33-0.205 0.525-0.201s0.38 0.082 0.517 0.22 0.216 0.323 0.22 0.517c0.003 0.194-0.069 0.382-0.201 0.525l-7.719 7.72h20.189c0.199 0 0.39 0.079 0.53 0.22s0.22 0.331 0.22 0.53z">
            </path>
        </symbol>




        <symbol id="icon-arrow" viewBox="0 0 34 21">
            <path d="M1 10.5006H33M33 10.5006L24 1.50061M33 10.5006L24 19.5006" stroke="var(--primary-text-color)"
                stroke-width="2" stroke-linecap="round" stroke-linejoin="round" />
        </symbol>
        <!-- <symbol id="icon-arrow" viewBox="0 0 32 32">
            <path stroke-linecap="round" stroke-linejoin="round" stroke-width="1.882"
                d="M.941 16h30.118m0 0-8.471-8.471M31.059 16l-8.471 8.471" />
        </symbol> -->
    </defs>
</svg>