<svg xmlns="http://www.w3.org/2000/svg" aria-hidden="true" style="position:absolute;width:0;height:0;overflow:hidden">
    <defs>
        <!-- Logo icons -->
        <symbol id="icon-w" viewBox="0 0 32 32">
            <path
                d="m8.304 25.942 5.107-23.315h3.047l1.655 1.99-5.441 23.65H9.309l-1.004-2.324zM6.948 2.627l4.314 23.491-1.109 2.148H6.261L.82 2.626h6.128zm13.964 23.368 4.279-23.368h6.111l-5.441 25.64h-3.874l-1.074-2.272zM18.658 2.627l5.23 23.456-1.056 2.183h-3.363L13.904 4.581l1.726-1.955h3.029z" />
        </symbol>
        <symbol id="icon-i" viewBox="0 0 32 32">
            <path d="M19.561 1.14v29.913H12.37V1.14h7.191z" />
        </symbol>
        <symbol id="icon-z" viewBox="0 0 32 32">
            <path
                d="M28.308 25.804v5.547H6.654v-5.547h21.654zm-.144-20.668L10.229 31.351H5.011V27.55L23.152 1.438h5.013v3.698zm-2.321-3.698v5.568H4.908V1.438h20.935z" />
        </symbol>
        <symbol id="icon-a" viewBox="0 0 32 32">
            <path
                d="M16.722 7.426 9.429 31.052H1.684L12.675 1.139h4.91l-.863 6.287zm6.04 23.627L15.448 7.427l-.945-6.287h4.972l11.053 29.913h-7.766zm-.288-11.156v5.568H7.127v-5.568h15.347z" />
        </symbol>
        <symbol id="icon-r" viewBox="0 0 32 32">
            <path
                d="M4.138 1.438H15.91c2.301 0 4.301.342 5.999 1.027s3.006 1.698 3.924 3.041c.931 1.342 1.397 3 1.397 4.972 0 1.712-.267 3.143-.801 4.294s-1.281 2.102-2.239 2.856c-.945.74-2.048 1.349-3.308 1.828l-2.363 1.335H8.637l-.041-5.568h7.314c.918 0 1.678-.164 2.28-.493s1.055-.794 1.356-1.397c.315-.616.473-1.349.473-2.198 0-.863-.157-1.602-.473-2.219s-.781-1.089-1.397-1.418c-.603-.329-1.349-.493-2.239-.493h-4.561V31.35H4.138V1.437zm16.374 29.913L13.897 18.12l7.643-.041 6.697 12.964v.308h-7.725z" />
        </symbol>
        <symbol id="icon-d" viewBox="0 0 32 32">
            <path
                d="M14.651 31.351H8.015l.041-5.547h6.595c1.37 0 2.527-.329 3.472-.986.959-.657 1.685-1.637 2.178-2.938.507-1.315.76-2.931.76-4.848v-1.294c0-1.438-.144-2.698-.431-3.78-.274-1.096-.685-2.007-1.233-2.732a5.157 5.157 0 0 0-2.054-1.664c-.808-.37-1.739-.555-2.794-.555H7.893V1.439h6.656c2.027 0 3.883.349 5.568 1.048a12.462 12.462 0 0 1 4.396 2.958c1.246 1.274 2.205 2.787 2.876 4.54.685 1.739 1.027 3.671 1.027 5.794v1.253c0 2.109-.342 4.04-1.027 5.794-.671 1.753-1.623 3.267-2.856 4.54s-2.691 2.26-4.376 2.958c-1.671.685-3.506 1.027-5.506 1.027zM12.145 1.438v29.913H4.934V1.438h7.211z" />
        </symbol>
        <symbol id="icon-rectangle" viewBox="0 0 32 32">
            <path d="M1.421 1.564h29.158v29.158H1.421V1.564z" />
        </symbol>
        <!-- Socials icons -->
        <symbol id="icon-glass-thin" viewBox="0 0 32 32">
            <path stroke-width=".667"
                d="M27.68 28.767a.817.817 0 0 0 .906-.181.821.821 0 0 0 .181-.906.813.813 0 0 0-.182-.267l-5.502-5.514a11.334 11.334 0 1 0-1.183 1.183l5.514 5.502c.076.078.167.14.267.182zM4.833 14.5a9.664 9.664 0 0 1 16.501-6.834 9.671 9.671 0 0 1-1.464 14.872 9.664 9.664 0 0 1-5.37 1.629A9.678 9.678 0 0 1 4.833 14.5z" />
        </symbol>
        <symbol id="icon-instagram" viewBox="0 0 32 32">
            <path
                d="M15.518 10.546a5.525 5.525 0 0 0-5.1 3.407 5.518 5.518 0 0 0 4.023 7.526 5.517 5.517 0 0 0 4.977-9.315 5.528 5.528 0 0 0-3.901-1.619zm0 9.6a4.076 4.076 0 0 1-3.77-2.519 4.073 4.073 0 0 1 .885-4.446 4.085 4.085 0 0 1 4.446-.885 4.077 4.077 0 0 1 2.519 3.77 4.08 4.08 0 0 1-4.08 4.08zm5.76-16.32H9.758a6.487 6.487 0 0 0-6.48 6.48v11.52a6.487 6.487 0 0 0 6.48 6.48h11.52a6.487 6.487 0 0 0 6.48-6.48v-11.52a6.487 6.487 0 0 0-6.48-6.48zm5.04 18a5.04 5.04 0 0 1-5.04 5.04H9.758a5.04 5.04 0 0 1-5.04-5.04v-11.52a5.04 5.04 0 0 1 5.04-5.04h11.52a5.04 5.04 0 0 1 5.04 5.04v11.52zm-3.36-12a1.202 1.202 0 0 1-.74 1.109 1.198 1.198 0 0 1-1.125-2.106 1.203 1.203 0 0 1 1.868.998z" />
        </symbol>
        <symbol id="icon-facebook" viewBox="0 0 32 32">
            <path
                d="M15.518 3.826a12.24 12.24 0 1 0 12.24 12.241 12.253 12.253 0 0 0-12.24-12.24zm.72 23.016v-8.136h3.12a.72.72 0 0 0 0-1.44h-3.12v-3.12a2.16 2.16 0 0 1 2.16-2.16h1.92a.72.72 0 0 0 0-1.44h-1.92a3.602 3.602 0 0 0-3.6 3.6v3.12h-3.12a.72.72 0 0 0 0 1.44h3.12v8.136a10.8 10.8 0 1 1 1.44 0z" />
        </symbol>
        <symbol id="icon-behance" viewBox="0 0 32 32">
            <path
                d="M13.616 15.389a4.321 4.321 0 0 0-2.658-7.723h-6.96a.72.72 0 0 0-.72.72v15.36a.72.72 0 0 0 .72.72h7.44a4.8 4.8 0 0 0 2.177-9.077zM4.718 9.106h6.24a2.883 2.883 0 0 1 2.036 4.917c-.54.54-1.273.844-2.036.844h-6.24v-5.76zm6.72 13.92h-6.72v-6.72h6.72a3.36 3.36 0 0 1 0 6.72zm8.16-12.72a.72.72 0 0 1 .72-.72h7.68a.72.72 0 0 1 0 1.44h-7.68a.72.72 0 0 1-.72-.72zm4.56 3.12a5.523 5.523 0 0 0-5.514 5.272 5.512 5.512 0 0 0 2.404 4.809 5.519 5.519 0 0 0 7.526-1.247.719.719 0 0 0-.678-1.146.722.722 0 0 0-.475.281 4.079 4.079 0 0 1-6.229.356 4.08 4.08 0 0 1-1.052-2.084h8.816a.72.72 0 0 0 .72-.72 5.528 5.528 0 0 0-5.52-5.52zm-4.016 4.8a4.08 4.08 0 0 1 8.032 0h-8.033z" />
        </symbol>
        <!-- Nav icons -->
        <symbol id="icon-glass-plus" viewBox="0 0 32 32">
            <path
                d="M18.75 14a.753.753 0 0 1-.75.75h-3.25V18a.753.753 0 0 1-.75.75.753.753 0 0 1-.75-.75v-3.25H10a.753.753 0 0 1-.75-.75.753.753 0 0 1 .75-.75h3.25V10a.753.753 0 0 1 .75-.75.753.753 0 0 1 .75.75v3.25H18a.753.753 0 0 1 .75.75zm9.78 14.53a.752.752 0 0 1-1.06 0l-6.422-6.422a10.769 10.769 0 1 1 1.059-1.058l6.422 6.422a.752.752 0 0 1 0 1.06zM14 23.25a9.244 9.244 0 0 0 8.546-5.71 9.249 9.249 0 0 0-6.742-12.612A9.249 9.249 0 0 0 4.75 14 9.263 9.263 0 0 0 14 23.25z" />
        </symbol>
        <symbol id="icon-arrow-right" viewBox="0 0 32 32">
            <path
                d="M4.25 16a.753.753 0 0 0 .75.75h20.189l-7.719 7.72a.748.748 0 1 0 1.058 1.058l9-9a.752.752 0 0 0 0-1.06l-9-9a.75.75 0 0 0-1.262.536.757.757 0 0 0 .201.525l7.719 7.72H4.997a.753.753 0 0 0-.75.75z" />
        </symbol>
        <symbol id="icon-arrow-left-thin" viewBox="0 0 32 32">
            <path
                d="M29.013 16.193a.534.534 0 0 1-.537.537l-23.747-.142 5.525 5.526a.523.523 0 0 1 .17.383.537.537 0 0 1-.929.376l-6.442-6.442a.535.535 0 0 1 0-.758l6.442-6.442a.538.538 0 0 1 .758.758l-5.525 5.526 23.747.142a.534.534 0 0 1 .537.537z" />
        </symbol>
        <symbol id="icon-arrow-right-thin" viewBox="0 0 32 32">
            <path
                d="M2.987 15.807a.534.534 0 0 1 .537-.537l23.747.142-5.525-5.526a.523.523 0 0 1-.17-.383.537.537 0 0 1 .929-.376l6.442 6.442a.535.535 0 0 1 0 .758l-6.442 6.442a.538.538 0 0 1-.758-.758l5.525-5.526-23.747-.142a.534.534 0 0 1-.537-.537z" />
        </symbol>
    </defs>
</svg>