<!-- Generated by IcoMoon.io -->
<svg version="1.1" xmlns="http://www.w3.org/2000/svg" width="32" height="32" viewBox="0 0 32 32">
<title>arrow-right</title>
<path d="M4.25 16c0 0.199 0.079 0.39 0.22 0.53s0.331 0.22 0.53 0.22h20.189l-7.719 7.72c-0.074 0.069-0.133 0.151-0.174 0.243s-0.063 0.191-0.065 0.292c-0.002 0.101 0.017 0.201 0.054 0.294s0.094 0.178 0.165 0.249c0.071 0.071 0.156 0.127 0.249 0.165s0.193 0.056 0.294 0.054c0.101-0.002 0.2-0.024 0.292-0.065s0.175-0.1 0.243-0.174l9-9c0.14-0.141 0.219-0.331 0.219-0.53s-0.079-0.389-0.219-0.53l-9-9c-0.142-0.132-0.33-0.205-0.525-0.201s-0.38 0.082-0.517 0.22-0.216 0.323-0.22 0.517c-0.003 0.194 0.069 0.382 0.201 0.525l7.719 7.72h-20.189c-0.199 0-0.39 0.079-0.53 0.22s-0.22 0.331-0.22 0.53z"></path>
</svg>
