<!-- Generated by IcoMoon.io -->
<svg version="1.1" xmlns="http://www.w3.org/2000/svg" width="32" height="32" viewBox="0 0 32 32">
<title>arrow-right-thin</title>
<path d="M2.987 15.807c0-0.142 0.057-0.279 0.157-0.38s0.237-0.157 0.38-0.157l23.747 0.142-5.525-5.526c-0.053-0.049-0.095-0.108-0.124-0.174s-0.045-0.137-0.046-0.209c-0.001-0.072 0.012-0.144 0.039-0.21s0.067-0.128 0.118-0.179c0.051-0.051 0.112-0.091 0.179-0.118s0.138-0.040 0.21-0.039c0.072 0.001 0.143 0.017 0.209 0.046s0.125 0.072 0.174 0.124l6.442 6.442c0.101 0.101 0.157 0.237 0.157 0.379s-0.056 0.279-0.157 0.379l-6.442 6.442c-0.102 0.095-0.236 0.146-0.375 0.144s-0.272-0.059-0.37-0.157c-0.098-0.098-0.155-0.231-0.157-0.37s0.049-0.274 0.144-0.375l5.525-5.526-23.747-0.142c-0.142 0-0.279-0.057-0.38-0.157s-0.157-0.237-0.157-0.38z"></path>
</svg>
