<!-- Generated by IcoMoon.io -->
<svg version="1.1" xmlns="http://www.w3.org/2000/svg" width="32" height="32" viewBox="0 0 32 32">
<title>arrow-left-thin</title>
<path d="M29.013 16.193c0 0.142-0.057 0.279-0.157 0.38s-0.237 0.157-0.38 0.157l-23.747-0.142 5.525 5.526c0.053 0.049 0.095 0.108 0.124 0.174s0.045 0.137 0.046 0.209c0.001 0.072-0.012 0.144-0.039 0.21s-0.067 0.128-0.118 0.179c-0.051 0.051-0.112 0.091-0.179 0.118s-0.138 0.040-0.21 0.039c-0.072-0.001-0.143-0.017-0.209-0.046s-0.125-0.072-0.174-0.124l-6.442-6.442c-0.101-0.101-0.157-0.237-0.157-0.379s0.056-0.279 0.157-0.379l6.442-6.442c0.102-0.095 0.236-0.146 0.375-0.144s0.272 0.059 0.37 0.157c0.098 0.098 0.155 0.231 0.157 0.37s-0.049 0.274-0.144 0.375l-5.525 5.526 23.747 0.142c0.142 0 0.279 0.057 0.38 0.157s0.157 0.237 0.157 0.38z"></path>
</svg>
