<svg width="64" height="64" viewBox="0 0 64 64" fill="none" xmlns="http://www.w3.org/2000/svg">
<path d="M6.48499e-05 31.6142C6.48499e-05 31.3294 0.113182 31.0564 0.314537 30.855C0.515892 30.6536 0.78899 30.5405 1.07375 30.5405L48.5677 30.8253L37.5177 19.7735C37.4122 19.6752 37.3276 19.5567 37.2689 19.425C37.2102 19.2933 37.1787 19.1511 37.1761 19.0069C37.1736 18.8627 37.2001 18.7196 37.2541 18.5859C37.3081 18.4522 37.3885 18.3307 37.4905 18.2288C37.5924 18.1268 37.7139 18.0464 37.8476 17.9924C37.9812 17.9384 38.1244 17.9119 38.2686 17.9145C38.4128 17.917 38.5549 17.9486 38.6867 18.0072C38.8184 18.0659 38.9369 18.1505 39.0352 18.256L51.9194 31.1402C52.1205 31.3415 52.2334 31.6144 52.2334 31.899C52.2334 32.1835 52.1205 32.4564 51.9194 32.6577L39.0352 45.5419C38.8317 45.7316 38.5624 45.8348 38.2843 45.8299C38.0061 45.825 37.7407 45.7123 37.544 45.5156C37.3473 45.3189 37.2346 45.0535 37.2297 44.7753C37.2248 44.4972 37.3281 44.228 37.5177 44.0244L48.5677 32.9727L1.07375 32.6879C0.78899 32.6879 0.515892 32.5748 0.314537 32.3734C0.113182 32.1721 6.48499e-05 31.899 6.48499e-05 31.6142Z" fill="white"/>
</svg>
