<svg width="48" height="48" viewBox="0 0 48 48" fill="none" xmlns="http://www.w3.org/2000/svg">
<path d="M6.37502 24C6.37502 24.2984 6.49354 24.5845 6.70452 24.7955C6.9155 25.0065 7.20165 25.125 7.50002 25.125H37.7831L26.205 36.705C26.0945 36.808 26.0058 36.9322 25.9443 37.0702C25.8829 37.2082 25.8498 37.3572 25.8471 37.5082C25.8445 37.6593 25.8722 37.8093 25.9288 37.9494C25.9854 38.0895 26.0696 38.2167 26.1765 38.3236C26.2833 38.4304 26.4105 38.5146 26.5506 38.5712C26.6907 38.6278 26.8407 38.6556 26.9918 38.6529C27.1429 38.6502 27.2918 38.6172 27.4298 38.5557C27.5678 38.4942 27.692 38.4055 27.795 38.295L41.295 24.795C41.5057 24.5841 41.624 24.2981 41.624 24C41.624 23.7019 41.5057 23.416 41.295 23.205L27.795 9.70501C27.5818 9.50629 27.2997 9.39811 27.0082 9.40325C26.7168 9.40839 26.4387 9.52646 26.2326 9.73258C26.0265 9.9387 25.9084 10.2168 25.9033 10.5082C25.8981 10.7997 26.0063 11.0818 26.205 11.295L37.7831 22.875H7.50002C7.20165 22.875 6.9155 22.9935 6.70452 23.2045C6.49354 23.4155 6.37502 23.7016 6.37502 24Z" fill="white"/>
</svg>
