<!-- Generated by IcoMoon.io -->
<svg version="1.1" xmlns="http://www.w3.org/2000/svg" width="32" height="32" viewBox="0 0 32 32">
<title>behance</title>
<path d="M13.616 15.389c0.708-0.554 1.226-1.315 1.481-2.177s0.235-1.782-0.057-2.632c-0.292-0.85-0.843-1.588-1.575-2.11s-1.608-0.803-2.507-0.804h-6.96c-0.191 0-0.374 0.076-0.509 0.211s-0.211 0.318-0.211 0.509v15.36c0 0.191 0.076 0.374 0.211 0.509s0.318 0.211 0.509 0.211h7.44c1.078-0 2.125-0.364 2.971-1.031s1.444-1.601 1.695-2.649c0.252-1.048 0.143-2.151-0.309-3.13s-1.219-1.778-2.18-2.267zM4.718 9.106h6.24c0.764 0 1.496 0.303 2.036 0.844s0.844 1.273 0.844 2.036-0.303 1.496-0.844 2.037c-0.54 0.54-1.273 0.844-2.036 0.844h-6.24v-5.76zM11.438 23.026h-6.72v-6.72h6.72c0.891 0 1.746 0.354 2.376 0.984s0.984 1.485 0.984 2.376c0 0.891-0.354 1.746-0.984 2.376s-1.485 0.984-2.376 0.984zM19.598 10.306c0-0.191 0.076-0.374 0.211-0.509s0.318-0.211 0.509-0.211h7.68c0.191 0 0.374 0.076 0.509 0.211s0.211 0.318 0.211 0.509c0 0.191-0.076 0.374-0.211 0.509s-0.318 0.211-0.509 0.211h-7.68c-0.191 0-0.374-0.076-0.509-0.211s-0.211-0.318-0.211-0.509zM24.158 13.426c-0.941 0-1.866 0.241-2.688 0.699s-1.513 1.119-2.007 1.919c-0.495 0.8-0.776 1.714-0.819 2.654s0.156 1.875 0.577 2.717c0.421 0.841 1.049 1.561 1.827 2.092s1.677 0.853 2.614 0.938c0.937 0.085 1.88-0.072 2.74-0.454s1.607-0.978 2.172-1.731c0.115-0.153 0.164-0.345 0.137-0.534s-0.128-0.36-0.281-0.475c-0.153-0.115-0.345-0.164-0.534-0.137s-0.36 0.128-0.475 0.281c-0.477 0.636-1.129 1.119-1.876 1.389s-1.557 0.317-2.331 0.133c-0.773-0.184-1.476-0.589-2.022-1.166s-0.912-1.302-1.052-2.084h8.816c0.191 0 0.374-0.076 0.509-0.211s0.211-0.318 0.211-0.509c-0.002-1.463-0.584-2.866-1.619-3.901s-2.438-1.617-3.901-1.619zM20.142 18.226c0.168-0.943 0.663-1.796 1.397-2.411s1.661-0.952 2.619-0.952c0.958 0 1.885 0.337 2.619 0.952s1.229 1.468 1.397 2.411h-8.033z"></path>
</svg>
