<svg width="21" height="21" viewBox="0 0 21 21" fill="none" xmlns="http://www.w3.org/2000/svg">
<path d="M9.3797 19H5.70604L5.72878 15.8475H9.3797C10.1379 15.8475 10.7787 15.6607 11.3018 15.2871C11.8326 14.9135 12.2345 14.3569 12.5074 13.6174C12.788 12.8702 12.9283 11.9517 12.9283 10.8619V10.1264C12.9283 9.30907 12.8486 8.59295 12.6894 7.97802C12.5378 7.35531 12.3103 6.83768 12.007 6.42514C11.7037 6.00481 11.3246 5.68956 10.8696 5.4794C10.4223 5.26923 9.90668 5.16415 9.32283 5.16415H5.6378V2H9.32283C10.445 2 11.4724 2.19849 12.4051 2.59547C13.3453 2.98466 14.1566 3.5451 14.839 4.27679C15.529 5.00069 16.0598 5.86081 16.4313 6.85714C16.8104 7.8457 17 8.94322 17 10.1497V10.8619C17 12.0607 16.8104 13.1582 16.4313 14.1545C16.0598 15.1509 15.5328 16.011 14.8504 16.7349C14.168 17.4588 13.3605 18.0192 12.4278 18.4162C11.5028 18.8054 10.4867 19 9.3797 19ZM7.99213 2V19H4V2H7.99213Z" fill="white"/>
</svg>
