<!-- Generated by IcoMoon.io -->
<svg version="1.1" xmlns="http://www.w3.org/2000/svg" width="32" height="32" viewBox="0 0 32 32">
<title>D</title>
<path d="M14.651 31.351h-6.636l0.041-5.547h6.595c1.37 0 2.527-0.329 3.472-0.986 0.959-0.657 1.685-1.637 2.178-2.938 0.507-1.315 0.76-2.931 0.76-4.848v-1.294c0-1.438-0.144-2.698-0.431-3.78-0.274-1.096-0.685-2.007-1.233-2.732-0.548-0.74-1.233-1.294-2.054-1.664-0.808-0.37-1.739-0.555-2.794-0.555h-6.656v-5.568h6.656c2.027 0 3.883 0.349 5.568 1.048 1.698 0.685 3.164 1.671 4.396 2.958 1.246 1.274 2.205 2.787 2.876 4.54 0.685 1.739 1.027 3.671 1.027 5.794v1.253c0 2.109-0.342 4.040-1.027 5.794-0.671 1.753-1.623 3.267-2.856 4.54s-2.691 2.26-4.376 2.958c-1.671 0.685-3.506 1.027-5.506 1.027zM12.145 1.438v29.913h-7.211v-29.913h7.211z"></path>
</svg>
