<!-- Generated by IcoMoon.io -->
<svg version="1.1" xmlns="http://www.w3.org/2000/svg" width="32" height="32" viewBox="0 0 32 32">
<title>facebook</title>
<path d="M15.518 3.826c-2.421 0-4.787 0.718-6.8 2.063s-3.582 3.257-4.508 5.493c-0.926 2.237-1.169 4.698-0.697 7.072s1.638 4.555 3.35 6.267c1.712 1.712 3.893 2.878 6.267 3.35s4.835 0.23 7.072-0.696c2.237-0.926 4.148-2.495 5.493-4.508s2.063-4.379 2.063-6.8c-0.004-3.245-1.295-6.356-3.589-8.651s-5.406-3.585-8.651-3.589zM16.238 26.842v-8.136h3.12c0.191 0 0.374-0.076 0.509-0.211s0.211-0.318 0.211-0.509c0-0.191-0.076-0.374-0.211-0.509s-0.318-0.211-0.509-0.211h-3.12v-3.12c0-0.573 0.228-1.122 0.633-1.527s0.954-0.633 1.527-0.633h1.92c0.191 0 0.374-0.076 0.509-0.211s0.211-0.318 0.211-0.509c0-0.191-0.076-0.374-0.211-0.509s-0.318-0.211-0.509-0.211h-1.92c-0.955 0-1.87 0.379-2.546 1.054s-1.054 1.591-1.054 2.546v3.12h-3.12c-0.191 0-0.374 0.076-0.509 0.211s-0.211 0.318-0.211 0.509c0 0.191 0.076 0.374 0.211 0.509s0.318 0.211 0.509 0.211h3.12v8.136c-2.796-0.187-5.409-1.453-7.289-3.531s-2.878-4.805-2.785-7.605 1.272-5.455 3.286-7.403c2.014-1.948 4.706-3.037 7.508-3.037s5.494 1.089 7.508 3.037 3.192 4.602 3.286 7.403c0.094 2.8-0.905 5.528-2.785 7.605s-4.493 3.344-7.289 3.531z"></path>
</svg>
