<!-- Generated by IcoMoon.io -->
<svg version="1.1" xmlns="http://www.w3.org/2000/svg" width="32" height="32" viewBox="0 0 32 32">
<title>glass-thin</title>
<path stroke-linejoin="miter" stroke-linecap="butt" stroke-miterlimit="4" stroke-width="0.6667" stroke="#000" fill="#000" d="M27.68 28.767v0c0.101 0.043 0.21 0.065 0.32 0.065s0.219-0.022 0.32-0.065c0.1-0.042 0.19-0.104 0.266-0.181 0.077-0.076 0.139-0.166 0.181-0.266 0.043-0.101 0.065-0.21 0.065-0.32s-0.022-0.219-0.065-0.32v0c-0.042-0.1-0.104-0.191-0.182-0.267l-5.502-5.514c1.859-2.156 2.841-4.937 2.743-7.79-0.102-2.959-1.357-5.761-3.498-7.806s-4.997-3.171-7.958-3.137c-2.961 0.034-5.79 1.225-7.884 3.319s-3.285 4.923-3.319 7.884c-0.034 2.961 1.092 5.817 3.137 7.958s4.847 3.397 7.806 3.498c2.853 0.098 5.634-0.884 7.79-2.743l5.514 5.502c0.076 0.078 0.167 0.14 0.267 0.182zM4.833 14.5c0-1.912 0.567-3.781 1.629-5.37s2.572-2.829 4.338-3.56 3.71-0.923 5.585-0.55c1.875 0.373 3.598 1.294 4.949 2.646s2.273 3.074 2.646 4.949c0.373 1.875 0.181 3.819-0.55 5.585s-1.971 3.276-3.56 4.338-3.458 1.629-5.37 1.629c-2.563-0.003-5.020-1.023-6.832-2.835s-2.832-4.269-2.835-6.832z"></path>
</svg>
