<!-- Generated by IcoMoon.io -->
<svg version="1.1" xmlns="http://www.w3.org/2000/svg" width="32" height="32" viewBox="0 0 32 32">
<title>glass-plus</title>
<path d="M18.75 14c0 0.199-0.079 0.39-0.22 0.53s-0.331 0.22-0.53 0.22h-3.25v3.25c0 0.199-0.079 0.39-0.22 0.53s-0.331 0.22-0.53 0.22c-0.199 0-0.39-0.079-0.53-0.22s-0.22-0.331-0.22-0.53v-3.25h-3.25c-0.199 0-0.39-0.079-0.53-0.22s-0.22-0.331-0.22-0.53c0-0.199 0.079-0.39 0.22-0.53s0.331-0.22 0.53-0.22h3.25v-3.25c0-0.199 0.079-0.39 0.22-0.53s0.331-0.22 0.53-0.22c0.199 0 0.39 0.079 0.53 0.22s0.22 0.331 0.22 0.53v3.25h3.25c0.199 0 0.39 0.079 0.53 0.22s0.22 0.331 0.22 0.53zM28.53 28.53c-0.141 0.14-0.331 0.219-0.53 0.219s-0.389-0.079-0.53-0.219l-6.422-6.422c-2.106 1.831-4.841 2.774-7.628 2.628s-5.409-1.368-7.313-3.409c-1.904-2.041-2.941-4.742-2.892-7.532s1.179-5.454 3.152-7.427c1.974-1.974 4.636-3.104 7.427-3.152s5.491 0.988 7.532 2.892c2.041 1.904 3.263 4.526 3.409 7.313s-0.796 5.522-2.628 7.629l6.422 6.422c0.14 0.141 0.219 0.331 0.219 0.53s-0.079 0.389-0.219 0.53zM14 23.25c1.83 0 3.618-0.542 5.139-1.559s2.707-2.461 3.407-4.151 0.883-3.55 0.526-5.344c-0.357-1.794-1.238-3.443-2.532-4.736s-2.942-2.175-4.736-2.532-3.654-0.174-5.344 0.526c-1.69 0.7-3.135 1.886-4.151 3.407s-1.559 3.31-1.559 5.139c0.003 2.452 0.978 4.803 2.713 6.537s4.085 2.71 6.537 2.713z"></path>
</svg>
