<!-- Generated by IcoMoon.io -->
<svg version="1.1" xmlns="http://www.w3.org/2000/svg" width="32" height="32" viewBox="0 0 32 32">
<title>ph_instagram-logo-light</title>
<path d="M15.518 10.546c-1.092 0-2.159 0.324-3.067 0.93s-1.615 1.469-2.033 2.477c-0.418 1.009-0.527 2.119-0.314 3.189s0.739 2.054 1.511 2.826c0.772 0.772 1.756 1.298 2.826 1.511s2.181 0.104 3.189-0.314 1.871-1.125 2.477-2.033c0.607-0.908 0.93-1.975 0.93-3.067-0.002-1.463-0.584-2.866-1.619-3.901s-2.438-1.617-3.901-1.619zM15.518 20.146c-0.807 0-1.596-0.239-2.267-0.688s-1.194-1.086-1.503-1.831c-0.309-0.746-0.39-1.566-0.232-2.357s0.546-1.518 1.117-2.089c0.571-0.571 1.298-0.959 2.089-1.117s1.612-0.077 2.357 0.232c0.746 0.309 1.383 0.832 1.831 1.503s0.688 1.46 0.688 2.267c0 1.082-0.43 2.12-1.195 2.885s-1.803 1.195-2.885 1.195zM21.278 3.826h-11.52c-1.718 0.002-3.365 0.685-4.58 1.9s-1.898 2.862-1.9 4.58v11.52c0.002 1.718 0.685 3.365 1.9 4.58s2.862 1.898 4.58 1.9h11.52c1.718-0.002 3.365-0.685 4.58-1.9s1.898-2.862 1.9-4.58v-11.52c-0.002-1.718-0.685-3.365-1.9-4.58s-2.862-1.898-4.58-1.9zM26.318 21.826c0 1.337-0.531 2.619-1.476 3.564s-2.227 1.476-3.564 1.476h-11.52c-1.337 0-2.619-0.531-3.564-1.476s-1.476-2.227-1.476-3.564v-11.52c0-1.337 0.531-2.619 1.476-3.564s2.227-1.476 3.564-1.476h11.52c1.337 0 2.619 0.531 3.564 1.476s1.476 2.227 1.476 3.564v11.52zM22.958 9.826c0 0.237-0.070 0.469-0.202 0.667s-0.319 0.351-0.538 0.442-0.461 0.115-0.693 0.068c-0.233-0.046-0.447-0.161-0.614-0.328s-0.282-0.382-0.328-0.614c-0.046-0.233-0.023-0.474 0.068-0.693s0.245-0.407 0.442-0.539c0.197-0.132 0.429-0.202 0.667-0.202 0.318 0 0.623 0.126 0.849 0.351s0.352 0.53 0.352 0.849z"></path>
</svg>
