<svg width="21" height="21" viewBox="0 0 21 21" fill="none" xmlns="http://www.w3.org/2000/svg">
<path d="M4 2H10.8389C12.1756 2 13.3373 2.1946 14.324 2.58379C15.3106 2.97298 16.0705 3.54899 16.6036 4.31181C17.1446 5.07463 17.4152 6.01648 17.4152 7.13736C17.4152 8.11035 17.26 8.92376 16.9497 9.57761C16.6394 10.2315 16.2057 10.7724 15.6488 11.2005C15.0997 11.6209 14.4592 11.9673 13.7272 12.2397L12.3546 12.9986H6.61381L6.58994 9.83448H10.8389C11.372 9.83448 11.8136 9.74107 12.1637 9.55426C12.5138 9.36744 12.7764 9.10279 12.9514 8.7603C13.1344 8.41003 13.2259 7.99359 13.2259 7.51099C13.2259 7.0206 13.1344 6.60027 12.9514 6.25C12.7684 5.89973 12.4979 5.63118 12.1398 5.44437C11.7897 5.25756 11.3561 5.16415 10.8389 5.16415H8.18926V19H4V2ZM13.5124 19L9.66922 11.4808L14.1091 11.4574L18 18.8249V19H13.5124Z" fill="white"/>
</svg>
