<!-- Generated by IcoMoon.io -->
<svg version="1.1" xmlns="http://www.w3.org/2000/svg" width="32" height="32" viewBox="0 0 32 32">
<title>R</title>
<path d="M4.138 1.438h11.772c2.301 0 4.301 0.342 5.999 1.027s3.006 1.698 3.924 3.041c0.931 1.342 1.397 3 1.397 4.972 0 1.712-0.267 3.143-0.801 4.294s-1.281 2.102-2.239 2.856c-0.945 0.74-2.048 1.349-3.308 1.828l-2.363 1.335h-9.882l-0.041-5.568h7.314c0.918 0 1.678-0.164 2.28-0.493s1.055-0.794 1.356-1.397c0.315-0.616 0.473-1.349 0.473-2.198 0-0.863-0.157-1.602-0.473-2.219s-0.781-1.089-1.397-1.418c-0.603-0.329-1.349-0.493-2.239-0.493h-4.561v24.345h-7.211v-29.913zM20.512 31.351l-6.615-13.231 7.643-0.041 6.697 12.964v0.308h-7.725z"></path>
</svg>
